<?xml version="1.0" encoding="UTF-8"?> <svg xmlns="http://www.w3.org/2000/svg" width="297" height="32" viewBox="0 0 297 32" fill="none"> <path d="M78.971 14.9374H59.964V0.485769H57.021V31.4535H59.964V17.6698H78.971V31.4535H81.914V0.485769H78.971V14.9374Z" fill="#2291FF"></path> <path d="M90.8657 17.1841H108.83V14.5123H90.8657V3.27894H109.689V0.485769H87.9226V31.4535H110.241V28.5996H90.8657V17.1841Z" fill="#2291FF"></path> <path d="M136.36 17.0019C138.077 15.3017 138.996 12.8729 138.996 10.2011C138.935 5.52562 135.685 0.425047 128.634 0.425047H114.778V31.3928H117.721V19.8558H125.691L136.237 31.2713L136.36 31.3928H140.284L129.37 19.7951C132.252 19.6736 134.643 18.7021 136.36 17.0019ZM117.721 3.21822H128.573C130.719 3.21822 132.558 3.88615 133.846 5.22201C135.134 6.49715 135.808 8.31879 135.808 10.2011C135.747 14.6945 133.11 17.1841 128.328 17.1841H117.721V3.21822Z" fill="#2291FF"></path> <path d="M157.513 0C146.599 0 141.755 8.01518 141.755 15.9089C141.755 23.6205 146.66 31.9393 157.513 31.9393C168.304 31.9393 173.27 23.6812 173.27 15.9696C173.27 11.2941 171.676 7.16509 168.794 4.25047C165.974 1.45731 162.111 0 157.513 0ZM157.513 29.2068C148.745 29.2068 144.698 22.3454 144.637 15.9696C144.637 12.0835 145.925 8.56167 148.316 6.19355C150.584 3.94687 153.773 2.73245 157.513 2.73245C166.403 2.73245 170.45 9.35104 170.45 15.9696C170.45 22.3454 166.403 29.2068 157.513 29.2068Z" fill="#2291FF"></path> <path d="M193.074 0.485769H190.131V31.4535H210.364V28.6603H193.074V0.485769Z" fill="#2291FF"></path> <path d="M227.777 0.485769H224.834L210.794 31.4535H213.982L217.293 23.9848H235.257L238.63 31.4535H241.818L227.9 0.667932L227.777 0.485769ZM234.093 21.2524H218.458L226.244 3.76471L234.093 21.2524Z" fill="#2291FF"></path> <path d="M263.339 15.5446C266.098 14.3909 267.753 11.962 267.753 9.04744C267.753 2.73245 262.174 0.485769 257.391 0.485769H244.516V31.4535H257.391C260.825 31.4535 268.796 30.6641 268.796 23.1954C268.796 19.7343 266.65 16.759 263.339 15.5446ZM247.397 17.0019H257.637C261.561 17.0019 265.791 18.6414 265.853 23.1347C265.853 27.6281 261.193 28.5996 257.33 28.5996H247.397V17.0019ZM257.637 14.2695H247.397V3.03605H257.33C261.07 3.03605 264.872 4.91841 264.872 9.04744C264.933 13.3586 260.948 14.2695 257.637 14.2695Z" fill="#2291FF"></path> <path d="M285.105 14.2087L284.737 14.148C279.219 13.1157 275.601 12.2049 275.601 8.68311C275.601 2.97533 283.695 2.79317 284.614 2.79317C288.048 2.85389 291.543 3.33966 293.689 6.80076L293.811 7.04364L296.264 5.64706L296.08 5.40417C293.137 1.03226 289.335 0.121442 284.614 0.121442C280.506 0.121442 276.766 1.33586 274.743 3.4611C273.333 4.91841 272.597 6.74004 272.658 8.86528C272.658 14.6945 278.544 15.8482 284.246 16.9412C289.09 17.852 294.118 18.8235 294.118 23.1954C294.118 28.7211 287.496 29.3283 284.614 29.3283C280.874 29.3283 276.214 27.5066 274.375 23.9848L274.252 23.7419L271.616 25.0171L271.739 25.26C274.252 30.2391 280.016 32 284.553 32C287.435 32 296.938 31.3928 297 23.1954C297.061 16.4554 290.991 15.3017 285.105 14.2087Z" fill="#2291FF"></path> <path d="M12.9978 19.8533C14.9474 19.8533 16.553 18.3409 16.553 16.4881C16.553 14.6353 14.9856 13.1229 12.9978 13.0851C11.0481 13.0851 9.44249 14.5975 9.44249 16.4503C9.44249 18.3409 11.0481 19.8533 12.9978 19.8533Z" fill="#2291FF"></path> <path d="M44.2688 31.4993C46.2184 31.4993 47.824 29.9869 47.824 28.1341C47.824 26.2813 46.2567 24.7688 44.2688 24.731C42.3191 24.731 40.7135 26.2435 40.7135 28.0963C40.7135 29.949 42.2809 31.4615 44.2688 31.4993Z" fill="#2291FF"></path> <path d="M5.1991 0.607211H0V31.575H5.1991V0.607211Z" fill="#2291FF"></path> <path d="M25.9955 0.607211H20.7964V31.575H25.9955V0.607211Z" fill="#2291FF"></path> <path d="M36.4319 0.607211H31.2328V31.575H36.4319V0.607211Z" fill="#2291FF"></path> </svg> 