<?xml version="1.0" encoding="UTF-8"?> <svg xmlns="http://www.w3.org/2000/svg" width="160" height="27" viewBox="0 0 160 27" fill="none"> <path d="M6.334 20.378H0V1.294H6.334C7.54867 1.29988 8.75458 1.50008 9.906 1.887C11.0874 2.27614 12.1849 2.88442 13.141 3.68C14.1188 4.50321 14.913 5.52252 15.472 6.672C16.0864 7.97258 16.3907 9.39793 16.361 10.836C16.3939 12.2789 16.0895 13.7095 15.472 15.014C14.9105 16.1585 14.1166 17.1734 13.141 17.994C12.1847 18.7893 11.0873 19.3976 9.906 19.787C8.75447 20.1732 7.54857 20.3728 6.334 20.378ZM1.94 3.073V18.599H5.714C7.00688 18.6269 8.29282 18.4027 9.5 17.939C10.4997 17.5434 11.4077 16.9471 12.168 16.187C12.8631 15.4815 13.4006 14.6366 13.745 13.708C14.429 11.8554 14.429 9.81955 13.745 7.967C13.4006 7.03815 12.8631 6.19289 12.168 5.487C11.4073 4.72683 10.4994 4.12998 9.5 3.733C8.29239 3.26957 7.00618 3.04541 5.713 3.073H1.94Z" fill="#2291FF"></path> <path d="M21.779 20.377H19.996V7.763H21.779V20.377ZM20.89 4.205C20.5565 4.20208 20.2367 4.07187 19.996 3.841C19.8656 3.72449 19.7622 3.58089 19.6931 3.42025C19.624 3.2596 19.5909 3.0858 19.596 2.911C19.5909 2.7362 19.624 2.5624 19.6931 2.40175C19.7622 2.24111 19.8656 2.09751 19.996 1.981C20.2369 1.75038 20.5566 1.62022 20.89 1.617C21.2218 1.62108 21.5396 1.75122 21.779 1.981C21.9095 2.09762 22.013 2.24138 22.0821 2.40221C22.1512 2.56304 22.1843 2.73704 22.179 2.912C22.1841 3.0868 22.151 3.2606 22.0819 3.42125C22.0128 3.58189 21.9094 3.72549 21.779 3.842C21.5399 4.07202 21.2218 4.20189 20.89 4.205Z" fill="#2291FF"></path> <path d="M31.779 26.846C30.6258 26.8649 29.4803 26.6545 28.409 26.227C27.3865 25.7864 26.4693 25.1336 25.718 24.312L27.038 22.912C27.5754 23.6249 28.2723 24.202 29.073 24.597C29.94 25.0254 30.896 25.2427 31.863 25.231C32.6442 25.2505 33.4218 25.1173 34.152 24.839C34.7364 24.6087 35.2582 24.2438 35.675 23.774C36.0651 23.3156 36.3501 22.7773 36.51 22.197C36.6842 21.5696 36.7707 20.9211 36.767 20.27V18.005H36.713C36.2062 18.8073 35.4764 19.4443 34.613 19.838C33.7881 20.1959 32.8982 20.3794 31.999 20.377C31.1154 20.3837 30.2389 20.219 29.418 19.892C28.6433 19.5836 27.9343 19.1305 27.329 18.557C26.7298 17.9801 26.2536 17.2878 25.929 16.522C25.5851 15.7127 25.4112 14.8413 25.418 13.962C25.4115 13.0849 25.5762 12.215 25.903 11.401C26.2137 10.6313 26.6666 9.92706 27.238 9.325C27.8102 8.73012 28.4979 8.25847 29.259 7.939C30.0745 7.60033 30.95 7.43025 31.833 7.439C32.2353 7.44141 32.6367 7.47754 33.033 7.547C33.4682 7.62329 33.893 7.74981 34.299 7.924C35.2636 8.34124 36.0973 9.01157 36.712 9.864H36.766V7.762H38.545V20.269C38.5384 21.0038 38.4522 21.7357 38.288 22.452C38.1145 23.2263 37.7732 23.9531 37.288 24.581C36.7368 25.2727 36.0322 25.8266 35.23 26.199C34.1425 26.6701 32.9632 26.8912 31.779 26.846ZM32.049 9.057C31.4123 9.05184 30.782 9.18526 30.202 9.448C29.6457 9.70163 29.1423 10.0578 28.718 10.498C28.292 10.9452 27.9528 11.4677 27.718 12.039C27.2323 13.2408 27.2323 14.5842 27.718 15.786C27.9528 16.3558 28.2919 16.8767 28.718 17.322C29.1421 17.7616 29.6456 18.1169 30.202 18.369C30.7818 18.6325 31.4121 18.7663 32.049 18.761C33.3113 18.7671 34.5281 18.2894 35.449 17.426C35.901 16.9993 36.2551 16.4797 36.487 15.903C36.7339 15.268 36.8466 14.5887 36.818 13.908C36.8221 13.2709 36.7131 12.638 36.496 12.039C36.288 11.4689 35.9673 10.9465 35.553 10.503C35.1265 10.0527 34.6132 9.69348 34.044 9.447C33.4133 9.17971 32.7339 9.04655 32.049 9.056V9.057Z" fill="#2291FF"></path> <path d="M44.717 20.377H42.934V7.763H44.717V20.377ZM43.828 4.205C43.4945 4.20208 43.1747 4.07187 42.934 3.841C42.8036 3.72449 42.7002 3.58089 42.6311 3.42025C42.562 3.2596 42.5289 3.0858 42.534 2.911C42.5289 2.7362 42.562 2.5624 42.6311 2.40175C42.7002 2.24111 42.8036 2.09751 42.934 1.981C43.1749 1.75038 43.4946 1.62022 43.828 1.617C44.1598 1.62108 44.4776 1.75122 44.717 1.981C44.8475 2.09762 44.951 2.24138 45.0201 2.40221C45.0892 2.56304 45.1223 2.73704 45.117 2.912C45.1221 3.0868 45.089 3.2606 45.0199 3.42125C44.9508 3.58189 44.8474 3.72549 44.717 3.842C44.4779 4.07202 44.1598 4.20189 43.828 4.205Z" fill="#2291FF"></path> <path d="M55.525 9.38H51.886V16.82C51.8758 17.2062 51.9212 17.5918 52.021 17.965C52.0883 18.2215 52.2178 18.4574 52.398 18.652C52.5585 18.8131 52.7585 18.9293 52.978 18.989C53.2195 19.0542 53.4689 19.0858 53.719 19.083C54.0384 19.0813 54.356 19.0359 54.663 18.948C54.9713 18.8644 55.2694 18.747 55.552 18.598L55.633 20.242C54.8753 20.5658 54.0566 20.722 53.233 20.7C52.8739 20.6977 52.5163 20.6523 52.168 20.565C51.7963 20.4737 51.4505 20.2986 51.157 20.053C50.8305 19.7738 50.5722 19.4235 50.402 19.029C50.1827 18.49 50.0804 17.9105 50.102 17.329V9.38H47.439V7.763H50.107V4.205H51.886V7.763H55.525V9.38Z" fill="#2291FF"></path> <path d="M61.644 20.701C61.0969 20.7017 60.5524 20.6246 60.027 20.472C59.5243 20.3284 59.0533 20.0909 58.639 19.772C58.2366 19.4591 57.9056 19.064 57.668 18.613C57.4171 18.1159 57.2921 17.5647 57.304 17.008C57.2559 16.1317 57.5418 15.2698 58.104 14.596C58.6493 14.0025 59.3329 13.5531 60.094 13.288C60.9197 12.9958 61.7806 12.8145 62.654 12.749C63.561 12.678 64.404 12.639 65.147 12.639H66.037V12.318C66.07 11.8771 66.0156 11.434 65.8767 11.0142C65.7379 10.5944 65.5174 10.2063 65.228 9.872C64.8988 9.58115 64.5148 9.35911 64.0985 9.21897C63.6822 9.07883 63.242 9.02342 62.804 9.056C61.3766 9.04082 59.9973 9.57128 58.948 10.539L57.87 9.272C58.5883 8.62071 59.4316 8.12236 60.3486 7.80724C61.2656 7.49213 62.2371 7.36684 63.204 7.439C63.8041 7.43725 64.4008 7.52833 64.973 7.709C65.5152 7.87615 66.0159 8.1563 66.442 8.531C66.8693 8.9185 67.2101 9.39181 67.442 9.92C67.7073 10.5505 67.8358 11.2301 67.819 11.914V17.547C67.819 18.031 67.842 18.547 67.887 19.07C67.932 19.593 67.982 20.038 68.035 20.378H66.304C66.2465 20.0469 66.2058 19.7132 66.182 19.378C66.156 19.016 66.142 18.663 66.142 18.327H66.092C65.6527 19.0899 65.0143 19.719 64.245 20.147C63.4346 20.5365 62.5428 20.7265 61.644 20.701ZM65.122 14.101C64.679 14.101 64.112 14.123 63.437 14.168C62.7808 14.2108 62.1305 14.3194 61.496 14.492C60.9159 14.6445 60.3742 14.917 59.906 15.292C59.6894 15.47 59.517 15.6957 59.4021 15.9514C59.2873 16.2071 59.2332 16.4859 59.244 16.766C59.2354 17.1374 59.3251 17.5044 59.504 17.83C59.6725 18.1234 59.9083 18.3725 60.192 18.557C60.4843 18.7479 60.8084 18.8851 61.149 18.962C61.4983 19.0426 61.8556 19.0831 62.214 19.083C62.7922 19.0959 63.3666 18.9858 63.899 18.76C64.3555 18.5589 64.7625 18.2605 65.0915 17.8857C65.4206 17.5109 65.6637 17.0687 65.804 16.59C65.959 16.0788 66.0362 15.5472 66.033 15.013V14.097L65.122 14.101Z" fill="#2291FF"></path> <path d="M72.345 20.378H74.124V0H72.345V20.378Z" fill="#2291FF"></path> <path d="M95.177 9.709V19.109C94.6739 19.4137 94.1411 19.6667 93.587 19.864C92.9814 20.0841 92.3637 20.2694 91.737 20.419C91.0977 20.5717 90.4494 20.6843 89.796 20.756C89.1831 20.8252 88.5668 20.8613 87.95 20.864C86.4681 20.8896 84.9965 20.6144 83.624 20.055C82.4157 19.5562 81.3235 18.8129 80.416 17.872C79.5433 16.9522 78.8657 15.8654 78.424 14.677C77.9632 13.4491 77.7304 12.1475 77.737 10.836C77.725 9.4798 77.9766 8.13418 78.478 6.874C78.9474 5.69039 79.6434 4.60984 80.527 3.693C81.4184 2.78092 82.487 2.06083 83.667 1.577C84.9408 1.05481 86.3064 0.793647 87.683 0.809C89.1491 0.761303 90.6113 0.985063 91.996 1.469C93.0479 1.8702 94.0023 2.4906 94.796 3.289L92.966 5.257C92.2567 4.55313 91.4006 4.01464 90.459 3.68C89.5641 3.38122 88.6264 3.2309 87.683 3.235C86.7028 3.21716 85.73 3.4073 84.8287 3.7929C83.9273 4.17849 83.118 4.75077 82.454 5.472C81.8141 6.17233 81.3193 6.99244 80.998 7.885C80.6531 8.83071 80.4797 9.83038 80.486 10.837C80.4769 11.866 80.6692 12.8868 81.052 13.842C81.4118 14.7399 81.943 15.5592 82.616 16.254C83.2837 16.9377 84.0809 17.4816 84.961 17.854C85.8901 18.2469 86.8902 18.4444 87.899 18.434C88.7722 18.4384 89.6435 18.3526 90.499 18.178C91.229 18.0389 91.9335 17.789 92.588 17.437V12.127H88.357V9.709H95.177Z" fill="#2291FF"></path> <path d="M105.096 20.702C104.159 20.7143 103.229 20.5403 102.36 20.19C101.576 19.8715 100.869 19.3903 100.285 18.778C99.711 18.1612 99.2666 17.4356 98.978 16.644C98.667 15.7937 98.5115 14.8944 98.519 13.989C98.5123 13.08 98.6821 12.1783 99.019 11.334C99.3355 10.5427 99.8021 9.82011 100.393 9.206C100.987 8.59793 101.697 8.11627 102.482 7.79C103.318 7.44452 104.215 7.27041 105.119 7.278C106.111 7.24825 107.095 7.45135 107.994 7.871C108.741 8.2408 109.398 8.76988 109.919 9.421C110.422 10.0608 110.794 10.7939 111.013 11.578C111.236 12.3722 111.349 13.1931 111.35 14.018V14.878H101.107C101.101 15.4079 101.226 15.9311 101.471 16.401C101.708 16.8537 102.033 17.254 102.428 17.578C102.838 17.9089 103.303 18.1642 103.802 18.332C104.322 18.5114 104.869 18.6027 105.419 18.602C106.112 18.6182 106.795 18.4364 107.388 18.078C107.971 17.7002 108.488 17.2297 108.919 16.685L110.751 18.085C110.087 18.9421 109.226 19.6271 108.242 20.0826C107.258 20.538 106.179 20.7504 105.096 20.702ZM105.069 9.218C104.507 9.21221 103.951 9.32714 103.438 9.555C102.968 9.76361 102.542 10.061 102.184 10.431C101.85 10.7806 101.581 11.1869 101.389 11.631C101.207 12.043 101.111 12.4877 101.107 12.938H108.762C108.749 12.4342 108.663 11.9349 108.506 11.456C108.361 11.0215 108.127 10.622 107.819 10.283C107.499 9.94203 107.107 9.67543 106.673 9.502C106.162 9.30356 105.617 9.20708 105.069 9.218Z" fill="#2291FF"></path> <path d="M114.261 7.602H116.687V9.569H116.741C117.074 8.85688 117.633 8.2745 118.331 7.912C119.133 7.47774 120.034 7.25927 120.946 7.278C121.546 7.27619 122.142 7.37176 122.711 7.561C123.263 7.7414 123.769 8.04038 124.194 8.437C124.638 8.86493 124.983 9.38473 125.205 9.96C125.471 10.6622 125.599 11.4092 125.582 12.16V20.378H123.161V12.831C123.172 12.3125 123.088 11.7963 122.913 11.308C122.775 10.9234 122.554 10.5738 122.266 10.284C122.003 10.0277 121.685 9.83425 121.336 9.718C120.984 9.60109 120.615 9.54199 120.244 9.543C119.767 9.53897 119.292 9.6213 118.844 9.786C118.411 9.94893 118.023 10.2121 117.712 10.554C117.369 10.9397 117.113 11.3942 116.961 11.887C116.769 12.5064 116.678 13.1527 116.691 13.801V20.378H114.261V7.602Z" fill="#2291FF"></path> <path d="M131.862 20.378H129.436V7.601H131.862V20.378ZM130.649 4.798C130.415 4.80008 130.184 4.75451 129.968 4.66407C129.753 4.57363 129.558 4.44023 129.396 4.272C129.228 4.11 129.094 3.91529 129.004 3.69982C128.913 3.48435 128.868 3.25267 128.87 3.019C128.868 2.78536 128.913 2.55375 129.004 2.33832C129.094 2.12288 129.228 1.92814 129.396 1.766C129.558 1.59777 129.753 1.46437 129.968 1.37393C130.184 1.28349 130.415 1.23792 130.649 1.24C130.883 1.23768 131.114 1.28315 131.33 1.3736C131.545 1.46405 131.74 1.59758 131.902 1.766C132.07 1.92826 132.204 2.12316 132.294 2.33878C132.385 2.55439 132.43 2.78619 132.428 3.02C132.43 3.25367 132.385 3.48535 132.294 3.70082C132.204 3.91629 132.07 4.111 131.902 4.273C131.74 4.44124 131.545 4.57458 131.33 4.66486C131.114 4.75514 130.883 4.80044 130.649 4.798Z" fill="#2291FF"></path> <path d="M147.037 20.378H144.616V18.41H144.557C144.224 19.1226 143.665 19.7054 142.967 20.068C142.165 20.5022 141.264 20.7206 140.352 20.702C139.747 20.7061 139.146 20.6105 138.573 20.419C138.026 20.2365 137.525 19.9376 137.104 19.543C136.66 19.1149 136.315 18.5947 136.094 18.019C135.828 17.3179 135.699 16.5719 135.716 15.822V7.601H138.142V15.149C138.13 15.6669 138.212 16.1827 138.385 16.671C138.523 17.0557 138.744 17.4054 139.032 17.695C139.295 17.9517 139.613 18.1453 139.962 18.261C140.314 18.378 140.683 18.4371 141.054 18.436C141.532 18.4401 142.006 18.3578 142.454 18.193C142.887 18.0303 143.275 17.7671 143.586 17.425C143.93 17.0392 144.187 16.5844 144.341 16.091C144.534 15.4721 144.627 14.8263 144.616 14.178V7.601H147.042L147.037 20.378Z" fill="#2291FF"></path> <path d="M157.496 10.809C157.201 10.4447 156.839 10.1394 156.431 9.909C155.955 9.65334 155.421 9.52777 154.881 9.545C154.358 9.53111 153.84 9.65674 153.381 9.909C153.186 10.0085 153.022 10.1614 152.91 10.3499C152.798 10.5384 152.742 10.7548 152.748 10.974C152.741 11.1436 152.77 11.3128 152.833 11.4706C152.896 11.6284 152.991 11.7713 153.112 11.89C153.363 12.1293 153.655 12.3211 153.974 12.456C154.317 12.6026 154.676 12.7106 155.043 12.778C155.42 12.85 155.744 12.913 156.014 12.967C156.513 13.0862 157.004 13.2392 157.483 13.425C157.915 13.5893 158.316 13.826 158.669 14.125C159.003 14.415 159.269 14.7744 159.45 15.178C159.651 15.655 159.748 16.1696 159.733 16.687C159.751 17.3326 159.593 17.9709 159.275 18.533C158.979 19.0347 158.574 19.463 158.089 19.786C157.583 20.1179 157.022 20.3551 156.431 20.486C155.817 20.629 155.189 20.7015 154.558 20.702C153.605 20.7214 152.658 20.5568 151.768 20.217C150.9 19.838 150.157 19.2208 149.625 18.437L151.458 16.928C151.858 17.3265 152.301 17.6787 152.779 17.978C153.316 18.2975 153.933 18.4565 154.558 18.436C154.87 18.4356 155.182 18.4041 155.488 18.342C155.78 18.2859 156.062 18.1847 156.323 18.042C156.555 17.9163 156.758 17.7416 156.916 17.53C157.069 17.3236 157.149 17.0727 157.145 16.816C157.151 16.6527 157.124 16.49 157.066 16.3372C157.008 16.1844 156.92 16.0446 156.808 15.926C156.578 15.6911 156.303 15.5048 156 15.378C155.677 15.2408 155.342 15.1327 155 15.055C154.649 14.9743 154.339 14.9077 154.07 14.855C153.549 14.7297 153.054 14.586 152.587 14.424C152.144 14.2743 151.726 14.0563 151.35 13.778C150.988 13.5052 150.694 13.1537 150.488 12.75C150.258 12.2715 150.147 11.7446 150.164 11.214C150.15 10.6088 150.294 10.0104 150.582 9.478C150.853 8.99046 151.231 8.57037 151.687 8.249C152.162 7.91746 152.691 7.67112 153.25 7.521C153.825 7.36029 154.419 7.27854 155.016 7.278C155.866 7.27587 156.709 7.44065 157.496 7.763C158.283 8.08325 158.945 8.64988 159.383 9.378L157.496 10.809Z" fill="#2291FF"></path> </svg> 