<?xml version="1.0" encoding="UTF-8"?> <!-- Creator: CorelDRAW 2019 (64-Bit) --> <svg xmlns="http://www.w3.org/2000/svg" xmlns:xlink="http://www.w3.org/1999/xlink" xmlns:xodm="http://www.corel.com/coreldraw/odm/2003" xml:space="preserve" width="132.821mm" height="50.7033mm" style="shape-rendering:geometricPrecision; text-rendering:geometricPrecision; image-rendering:optimizeQuality; fill-rule:evenodd; clip-rule:evenodd" viewBox="0 0 14074.68 5372.91"> <defs> <style type="text/css"> <![CDATA[ .fil2 {fill:#FEFEFE} .fil3 {fill:#FEFEFE} .fil0 {fill:url(#id0);fill-rule:nonzero} .fil1 {fill:url(#id1);fill-rule:nonzero} ]]> </style> <linearGradient id="id0" gradientUnits="userSpaceOnUse" x1="7003.97" y1="2168" x2="7044.11" y2="-7.38"> <stop offset="0" style="stop-opacity:1; stop-color:#265E9E"></stop> <stop offset="1" style="stop-opacity:1; stop-color:#22A4CC"></stop> </linearGradient> <linearGradient id="id1" gradientUnits="objectBoundingBox" xlink:href="#id0" x1="43.8226%" y1="80.5167%" x2="44.0571%" y2="20.1506%"> </linearGradient> </defs> <g id="Слой_x0020_1"> <metadata id="CorelCorpID_0Corel-Layer"></metadata> <g id="_1756222870576"> <path class="fil0" d="M1808.85 1449.34l206.49 153c-94.33,179.1 -224.33,317.38 -388.77,413.63 -163.83,96.24 -350.57,144.67 -560.24,144.67 -308.49,0 -563.43,-101.95 -764.84,-305.28 -200.78,-203.32 -301.49,-461.45 -301.49,-774.4 0,-313.57 100.71,-572.33 302.12,-775.66 202.05,-203.32 456.35,-305.3 763.57,-305.3 190.57,0 364.57,41.44 521.35,124.94 156.78,83.49 284.27,202.68 382.43,356.92l-214.81 152.95c-64.36,-122.99 -158.06,-219.87 -279.81,-289.37 -121.71,-69.46 -258.13,-104.54 -408.53,-104.54 -231.38,0 -423.22,79.7 -574.91,238.4 -151.68,158.7 -227.52,359.47 -227.52,601.66 0,242.85 75.84,443.59 227.52,601.68 151.68,158.05 343.53,237.08 574.91,237.08 161.88,0 305.27,-40.16 430.84,-119.83 125.57,-79.67 229.44,-196.28 311.68,-350.55zm1682.52 470.38c231.35,0 423.19,-79.03 575.52,-237.08 151.7,-158.09 227.54,-358.84 227.54,-601.68 0,-243.47 -75.84,-444.88 -226.91,-602.93 -151.05,-158.06 -343.54,-237.12 -576.16,-237.12 -231.38,0 -423.22,79.7 -575.54,238.4 -151.68,158.7 -227.52,359.47 -227.52,601.66 0,242.85 75.84,443.59 227.52,601.68 152.32,158.05 344.16,237.08 575.54,237.08zm-0.64 240.92c-309.13,0 -564.08,-101.95 -764.84,-305.28 -200.78,-203.32 -301.49,-461.45 -301.49,-774.4 0,-313.57 100.71,-572.33 302.76,-775.66 201.41,-203.32 455.71,-305.3 763.57,-305.3 308.46,0 564.03,101.98 767.36,306.59 202.68,203.96 304.03,462.08 304.03,774.38 0,312.95 -101.35,571.08 -303.4,774.4 -202.05,203.33 -458.27,305.28 -768,305.28zm2520.62 -1877.65l-627.79 0 0 1587.03 627.79 0c253.67,0 453.81,-71.41 599.11,-213.52 145.97,-142.76 218.62,-335.24 218.62,-578.1 0,-239 -73.92,-431.49 -222.45,-576.79 -147.86,-145.97 -346.72,-218.62 -595.28,-218.62zm0 -237.09c324.41,0 585.71,95.6 783.95,287.43 198.22,191.84 297.65,441.08 297.65,748.9 0,309.76 -97.52,558.33 -292.56,745.08 -195.68,186.75 -458.27,279.81 -789.05,279.81l-884 0 0 -2061.22 884 0zm1646.82 2061.22l0 -2061.22 1621.43 0 0 237.09 -1365.22 0 0 604.21 826.02 0 0 237.11 -826.02 0 0 745.71 1449.35 0 0 237.09 -1705.56 0zm2446.69 -1143.41l910.16 0c129.37,0 227.52,-28.7 293.83,-86.05 66.92,-56.75 100.08,-140.87 100.08,-251.78 0,-107.73 -33.16,-192.49 -100.08,-252.39 -66.3,-60.54 -160,-90.5 -281.08,-90.5l-922.9 0 0 680.71zm-256.21 1143.41l0 -2061.22 1182.94 0c201.41,0 358.84,50.98 473.57,152.32 114.06,101.35 171.44,241.55 171.44,420.65 0,149.16 -44.63,276.62 -133.86,383.06 -89.87,106.44 -207.79,172.72 -354.37,198.86l514.97 906.33 -282.99 0 -515.62 -902.5 -799.89 0 0 902.5 -256.21 0zm2213.44 -310.41l149.13 -221.14c145.97,112.81 297.65,198.86 455.08,258.76 157.41,59.26 313.59,89.22 467.83,89.22 190.57,0 345.44,-40.16 464,-121.11 119.19,-80.94 178.46,-184.83 178.46,-311.65 0,-100.7 -42.73,-183.56 -128.13,-248.59 -85.41,-65 -203.3,-103.86 -353.73,-116.62 -36.32,-3.83 -88.59,-7.65 -156.78,-10.84 -339.08,-24.22 -569.81,-63.72 -693.44,-119.83 -95.6,-46.51 -168.92,-105.81 -218.62,-178.46 -49.7,-73.29 -74.57,-154.87 -74.57,-246.01 0,-165.7 73.92,-302.11 222.43,-409.84 147.88,-107.05 340.37,-160.6 576.81,-160.6 172.09,0 341.62,28.05 509.24,84.76 167.65,56.75 326.98,140.87 477.39,251.76l-149.13 214.16c-127.49,-102.62 -260.68,-179.73 -400.92,-231.98 -140.21,-51.65 -284.27,-77.79 -432.13,-77.79 -155.5,0 -283.62,30.61 -384.97,91.14 -100.7,60.57 -151.05,136.41 -151.05,227.55 0,35.71 8.3,68.83 24.23,98.79 15.91,29.97 41.41,58.63 74.56,84.77 84.77,63.08 267.7,103.89 549.41,121.11 129.37,7.65 230.08,15.27 300.81,24.19 209.06,23.59 374.78,90.51 497.16,201.41 121.75,110.91 182.92,246.65 182.92,408.56 0,192.49 -83.49,351.19 -251.11,475.46 -167.62,124.29 -387.52,186.75 -659.03,186.75 -205.24,0 -396.46,-29.94 -572.36,-89.24 -176.54,-59.9 -344.17,-151.05 -503.49,-274.7zm-8570.59 -1697.28c545.65,0 987.94,442.3 987.94,987.94 0,545.58 -442.29,987.87 -987.94,987.87 -545.57,0 -987.87,-442.29 -987.87,-987.87 0,-545.64 442.3,-987.94 987.87,-987.94z"></path> <polygon class="fil1" points="1360.76,5372.91 1200.15,5372.91 206.52,3311.72 485.05,3311.72 1280.45,4963.72 2075.86,3311.72 2359.48,3311.72 "></polygon> <path id="1" class="fil1" d="M3175.56 4577.49l907.58 0 -455.7 -912.68 -451.88 912.68zm-664.76 795.41l1010.2 -2061.19 212.88 0 1021.67 2061.19 -278.53 0 -279.8 -554.5 -1138.94 0 -272.78 554.5 -274.7 0z"></path> <polygon id="2" class="fil1" points="5437.79,5372.91 5437.79,3311.72 5694,3311.72 5694,5135.81 7040.08,5135.81 7040.08,5372.91 "></polygon> <polygon id="3" class="fil1" points="7719.13,5372.91 7719.13,3311.72 7975.34,3311.72 7975.34,5135.81 9321.43,5135.81 9321.43,5372.91 "></polygon> <polygon id="4" class="fil1" points="10000.48,5372.91 10000.48,3311.72 11621.89,3311.72 11621.89,3548.81 10256.69,3548.81 10256.69,4153.02 11082.69,4153.02 11082.69,4390.11 10256.69,4390.11 10256.69,5135.81 11706.03,5135.81 11706.03,5372.91 "></polygon> <polygon id="5" class="fil1" points="12885.39,5372.91 12885.39,4340.4 11956.13,3311.72 12278,3311.72 13016.05,4125.61 13749.63,3311.72 14074.68,3311.72 13141.6,4344.23 13141.6,5372.91 "></polygon> <path class="fil2" d="M3733.74 1050.51c-48.75,-75.68 -124.94,-214.34 -172.7,-274.54 -71.63,-90.31 -132.85,-149.36 -257.1,-188.73 -368.82,-116.86 -747.75,183.87 -667.9,604.22 64.93,341.76 468.94,549.82 820.93,309.73l-127.6 -251.51c-35.48,24.66 -46.73,47.27 -99.98,65.83 -132.41,46.13 -270.13,-17.07 -318.85,-145.54 -70.96,-187.08 99.94,-373.58 289.94,-326.19 227.05,56.63 389.81,536.01 524.35,806.92 172.03,-325.51 410.91,-780.39 569.27,-1094.88l-312.15 0.45c-61.95,128.04 -192.3,377.69 -248.22,494.24z"></path> <path class="fil3" d="M3733.74 1050.51c-48.75,-75.68 -124.94,-214.34 -172.7,-274.54 -71.63,-90.31 -132.85,-149.36 -257.1,-188.73 -368.82,-116.86 -747.75,183.87 -667.9,604.22 64.93,341.76 468.94,549.82 820.93,309.73l-127.6 -251.51c-35.48,24.66 -46.73,47.27 -99.98,65.83 -132.41,46.13 -270.13,-17.07 -318.85,-145.54 -70.96,-187.08 99.94,-373.58 289.94,-326.19 227.05,56.63 389.81,536.01 524.35,806.92 172.03,-325.51 410.91,-780.39 569.27,-1094.88l-312.15 0.45c-61.95,128.04 -192.3,377.69 -248.22,494.24z"></path> </g> </g> </svg> 